#N canvas 224 224 922 410 12;
#X obj 24 23 inlet;
#X text 526 20 select soundbank via Trill Bar;
#X obj 24 59 moses 15;
#X text 91 60 RED?;
#X obj 129 100 moses 80;
#X obj 253 128 moses 105;
#X text 196 101 BLUE?;
#X text 324 128 GREEN? OR YELLOW?;
#X obj 24 90 bng 15 250 50 0 empty empty empty 17 7 0 10 #fcfcfc #000000
#000000;
#X obj 24 110 tgl 15 0 empty empty empty 17 7 0 10 #fcfcfc #000000
#000000 0 1;
#X obj 24 133 moses 1;
#X msg 24 171 4;
#X msg 70 170 1;
#X obj 24 333 outlet;
#X obj 129 128 bng 15 250 50 0 empty empty empty 17 7 0 10 #fcfcfc
#000000 #000000;
#X obj 129 148 tgl 15 0 empty empty empty 17 7 0 10 #fcfcfc #000000
#000000 0 1;
#X obj 129 170 moses 1;
#X msg 129 208 4;
#X msg 175 207 1;
#X obj 253 158 bng 15 250 50 0 empty empty empty 17 7 0 10 #fcfcfc
#000000 #000000;
#X obj 253 178 tgl 15 0 empty empty empty 17 7 0 10 #fcfcfc #000000
#000000 0 1;
#X obj 253 201 moses 1;
#X msg 253 239 4;
#X msg 299 238 1;
#X obj 389 158 bng 15 250 50 0 empty empty empty 17 7 0 10 #fcfcfc
#000000 #000000;
#X obj 389 178 tgl 15 0 empty empty empty 17 7 0 10 #fcfcfc #000000
#000000 0 1;
#X obj 389 201 moses 1;
#X msg 389 239 4;
#X msg 435 238 1;
#X text 73 20 input from Trill Bar;
#X text 480 240 comment;
#X connect 0 0 2 0;
#X connect 2 0 8 0;
#X connect 2 1 4 0;
#X connect 4 0 14 0;
#X connect 4 1 5 0;
#X connect 5 0 19 0;
#X connect 5 1 24 0;
#X connect 8 0 9 0;
#X connect 9 0 10 0;
#X connect 10 0 11 0;
#X connect 10 1 12 0;
#X connect 11 0 13 0;
#X connect 12 0 13 0;
#X connect 14 0 15 0;
#X connect 15 0 16 0;
#X connect 16 0 17 0;
#X connect 16 1 18 0;
#X connect 17 0 13 0;
#X connect 18 0 13 0;
#X connect 19 0 20 0;
#X connect 20 0 21 0;
#X connect 21 0 22 0;
#X connect 21 1 23 0;
#X connect 22 0 13 0;
#X connect 23 0 13 0;
#X connect 24 0 25 0;
#X connect 25 0 26 0;
#X connect 26 0 27 0;
#X connect 26 1 28 0;
#X connect 27 0 13 0;
#X connect 28 0 13 0;
