#N canvas 612 211 914 669 10;
#X msg 275 275 freeze \$1;
#X msg 275 315 bypass \$1;
#X obj 177 20 adc~;
#X obj 178 465 dac~;
#X obj 275 258 tgl 15 0 empty empty empty 17 7 0 10 #fcfcfc #000000 #000000 0 1;
#X obj 275 298 tgl 15 0 empty empty empty 17 7 0 10 #fcfcfc #000000 #000000 0 1;
#X obj 389 148 hsl 128 15 0 1 0 0 empty empty empty -2 -8 0 10 #00f8fc #000000 #000000 0 1;
#X floatatom 386 167 5 0 0 0 - - - 0;
#X obj 317 189 expr 1-$f1;
#X obj 387 33 hsl 128 15 0 1 0 0 empty empty empty -2 -8 0 10 #00fc04 #000000 #000000 0 1;
#X obj 389 90 hsl 128 15 0 1 0 0 empty empty empty -2 -8 0 10 #fc8000 #000000 #000000 0 1;
#X floatatom 386 110 5 0 0 0 - - - 0;
#X floatatom 384 58 5 0 0 0 - - - 0;
#X text 366 264 Freeze the reverb;
#X text 366 324 the dry signal pass through.;
#X text 365 311 Trun the reverb off and let;
#X text 436 175 Wet signal to dry signal ratio;
#X text 436 191 (0 : all dry \, 1 : all wet);
#X text 437 110 Damping level;
#X text 436 56 Roomize;
#X text 271 460 Pierre Massat \, GuitarExtended \, 2012;
#X obj 178 349 freeverb~;
#X msg 262 54 roomsize 0.5;
#X msg 261 115 damping 0.2;
#X msg 257 185 wet 0.75;
#X msg 256 206 dry 0.25;
#X obj 253 17 loadbang;
#X obj 132 162 *~ 0.6;
#X obj 569 232 vsl 16 136 0 0.7 0 0 empty empty VOLUME 0 -9 0 10 #ffffff #ffc7c6 #ff0400 0 1;
#X obj 178 416 *~;
#X text 601 337 volume \, controlled by Trill sensor;
#X text 212 418 change volume;
#N canvas 160 0 1620 956 readtouchbar 0;
#X obj 197 16 inlet;
#X obj 74 407 outlet;
#X msg 308 37 new touchbar 1 BAR;
#X obj 308 79 s bela_setTrill;
#X obj 272 158 r bela_trill;
#X obj 272 204 route touchbar;
#X obj 197 57 metro 200;
#X obj 197 251 list;
#X text 330 16 initialise sensor;
#X text 268 133 read sensor data stream;
#X obj 196 292 print touchbar;
#X obj 130 282 route 1;
#X obj 169 405 print afterroute;
#X msg 130 312 \$1;
#X text 12 240 if 1 touch \, use position to set detection level, f 24;
#X obj 130 344 * 70;
#X connect 0 0 6 0;
#X connect 0 0 2 0;
#X connect 2 0 3 0;
#X connect 4 0 5 0;
#X connect 5 0 7 1;
#X connect 6 0 7 0;
#X connect 7 0 10 0;
#X connect 7 0 11 0;
#X connect 11 0 13 0;
#X connect 13 0 15 0;
#X connect 15 0 12 0;
#X connect 15 0 1 0;
#X restore 641 213 pd readtouchbar;
#X msg 528 212 0.2;
#X obj 581 400 print volume;
#X connect 0 0 21 0;
#X connect 1 0 21 0;
#X connect 2 0 27 0;
#X connect 4 0 0 0;
#X connect 5 0 1 0;
#X connect 6 0 7 0;
#X connect 8 0 25 0;
#X connect 9 0 12 0;
#X connect 10 0 11 0;
#X connect 21 0 29 0;
#X connect 22 0 21 0;
#X connect 23 0 21 0;
#X connect 24 0 21 0;
#X connect 25 0 21 0;
#X connect 26 0 22 0;
#X connect 26 0 23 0;
#X connect 26 0 24 0;
#X connect 26 0 25 0;
#X connect 26 0 32 0;
#X connect 26 0 33 0;
#X connect 27 0 21 0;
#X connect 28 0 29 1;
#X connect 28 0 34 0;
#X connect 29 0 3 0;
#X connect 29 0 3 1;
#X connect 32 0 28 0;
#X connect 33 0 28 0;
