#N canvas 1034 183 653 502 10;
#X msg 275 275 freeze \$1;
#X msg 275 315 bypass \$1;
#X obj 177 20 adc~;
#X obj 178 465 dac~;
#X obj 275 258 tgl 15 0 empty empty empty 17 7 0 10 #fcfcfc #000000 #000000 0 1;
#X obj 275 298 tgl 15 0 empty empty empty 17 7 0 10 #fcfcfc #000000 #000000 0 1;
#X obj 389 148 hsl 128 15 0 1 0 0 empty empty empty -2 -8 0 10 #00f8fc #000000 #000000 0 1;
#X floatatom 386 167 5 0 0 0 - - - 0;
#X obj 317 189 expr 1-$f1;
#X obj 387 33 hsl 128 15 0 1 0 0 empty empty empty -2 -8 0 10 #00fc04 #000000 #000000 0 1;
#X obj 389 90 hsl 128 15 0 1 0 0 empty empty empty -2 -8 0 10 #fc8000 #000000 #000000 0 1;
#X floatatom 386 110 5 0 0 0 - - - 0;
#X floatatom 384 58 5 0 0 0 - - - 0;
#X text 366 264 Freeze the reverb;
#X text 366 324 the dry signal pass through.;
#X text 365 311 Trun the reverb off and let;
#X text 436 175 Wet signal to dry signal ratio;
#X text 436 191 (0 : all dry \, 1 : all wet);
#X text 437 110 Damping level;
#X text 436 56 Roomize;
#X text 271 460 Pierre Massat \, GuitarExtended \, 2012;
#X obj 178 349 freeverb~;
#X msg 262 54 roomsize 0.5;
#X msg 261 115 damping 0.2;
#X msg 257 185 wet 0.75;
#X msg 256 206 dry 0.25;
#X obj 253 17 loadbang;
#X obj 40 84 delwrite~ twigdelay 500;
#X obj 132 162 *~ 0.6;
#X obj 42 241 delread~ twigdelay 150;
#X connect 0 0 21 0;
#X connect 1 0 21 0;
#X connect 2 0 27 0;
#X connect 4 0 0 0;
#X connect 5 0 1 0;
#X connect 6 0 7 0;
#X connect 8 0 25 0;
#X connect 9 0 12 0;
#X connect 10 0 11 0;
#X connect 21 0 3 0;
#X connect 21 0 3 1;
#X connect 22 0 21 0;
#X connect 23 0 21 0;
#X connect 24 0 21 0;
#X connect 25 0 21 0;
#X connect 26 0 22 0;
#X connect 26 0 23 0;
#X connect 26 0 24 0;
#X connect 26 0 25 0;
#X connect 28 0 27 0;
#X connect 29 0 28 0;
#X connect 29 0 21 0;
#X connect 29 0 21 1;
