#N canvas 1010 212 914 669 10;
#X obj 79 47 adc~;
#X obj 146 423 dac~;
#X obj 496 10 loadbang;
#X obj 118 88 vsl 16 136 0 1 0 0 empty empty VOLUME 0 -9 0 10 #ffffff #ffc7c6 #ff0400 0 1;
#N canvas 160 0 988 956 readtouchbar 1;
#X obj 197 16 inlet;
#X msg 308 37 new touchbar 1 BAR;
#X obj 308 79 s bela_setTrill;
#X obj 272 158 r bela_trill;
#X obj 272 204 route touchbar;
#X obj 197 57 metro 200;
#X obj 197 251 list;
#X text 330 16 initialise sensor;
#X text 268 133 read sensor data stream;
#X obj 196 292 print touchbar;
#X obj 130 282 route 1;
#X msg 130 312 \$1;
#X text 12 240 if 1 touch \, use position to set detection level, f 24;
#X obj 130 357 moses 100;
#X obj 129 449 * 15;
#X obj 254 385 moses 105;
#X text 260 355 GREEN? Route past the phasor;
#X text 440 355 YELLOW Toggle reverb bypass;
#X text 9 373 LEFT OF GREEN Multiply output for volume control;
#X obj 76 526 outlet valuevolume;
#X obj 254 464 outlet bypassphasor;
#X obj 270 411 print bypassphasor;
#X obj 449 385 print bypassreverb;
#X obj 448 439 outlet bypassreverb;
#X obj 254 432 bng 16 250 50 0 empty empty empty 0 -8 0 10 #fcfcfc #000000 #000000;
#X obj 448 411 bng 16 250 50 0 empty empty empty 0 -8 0 10 #fcfcfc #000000 #000000;
#X obj 167 504 print volume;
#X obj 143 405 print volumemoses;
#X connect 0 0 5 0;
#X connect 0 0 1 0;
#X connect 1 0 2 0;
#X connect 3 0 4 0;
#X connect 4 0 6 1;
#X connect 5 0 6 0;
#X connect 6 0 9 0;
#X connect 6 0 10 0;
#X connect 10 0 11 0;
#X connect 11 0 13 0;
#X connect 13 0 14 0;
#X connect 13 0 27 0;
#X connect 13 1 15 0;
#X connect 14 0 19 0;
#X connect 14 0 26 0;
#X connect 15 0 21 0;
#X connect 15 0 24 0;
#X connect 15 1 22 0;
#X connect 15 1 25 0;
#X connect 24 0 20 0;
#X connect 25 0 23 0;
#X restore 118 47 pd readtouchbar;
#X obj 156 232 print volume;
#X obj 154 388 reverb_twig;
#X obj 80 282 *~ 0.6;
#X obj 78 337 phaser_twig;
#X obj 154 282 tgl 16 0 empty empty empty 0 -8 0 10 #fcfcfc #000000 #000000 0 1;
#X obj 79 309 claudespigot~;
#X msg 154 253 0;
#X text 496 358 2024-09-02 volume is controlled by a Trill Bar patch starts with no phasor \, only reverb if the designated point on the Trill Bar is touched \, this will activate the phasor \, which will also pass through the reverb if a second designated point on the Trill Bar is touched \, this will bypass the reverb effect.;
#X connect 0 0 7 0;
#X connect 2 0 4 0;
#X connect 2 0 6 1;
#X connect 2 0 8 1;
#X connect 2 0 11 0;
#X connect 3 0 5 0;
#X connect 3 0 7 1;
#X connect 4 0 3 0;
#X connect 4 1 9 0;
#X connect 4 2 6 3;
#X connect 6 0 1 0;
#X connect 6 0 1 1;
#X connect 7 0 10 0;
#X connect 8 0 6 0;
#X connect 9 0 10 1;
#X connect 10 0 8 0;
#X connect 10 1 6 0;
#X connect 11 0 9 0;
