#N canvas 1027 212 914 669 10;
#X obj 119 30 adc~;
#X obj 143 375 dac~;
#X obj 334 23 loadbang;
#X obj 210 128 vsl 16 136 0 1 0 0 empty empty VOLUME 0 -9 0 10 #ffffff #ffc7c6 #ff0400 0 1;
#X text 296 170 volume \, controlled by Trill sensor;
#N canvas 160 0 988 956 readtouchbar 1;
#X obj 197 16 inlet;
#X msg 308 37 new touchbar 1 BAR;
#X obj 308 79 s bela_setTrill;
#X obj 272 158 r bela_trill;
#X obj 272 204 route touchbar;
#X obj 197 57 metro 200;
#X obj 197 251 list;
#X text 330 16 initialise sensor;
#X text 268 133 read sensor data stream;
#X obj 196 292 print touchbar;
#X obj 130 282 route 1;
#X obj 167 504 print afterroute;
#X msg 130 312 \$1;
#X text 12 240 if 1 touch \, use position to set detection level, f 24;
#X obj 130 357 moses 100;
#X obj 129 449 * 15;
#X obj 254 385 moses 105;
#X text 260 355 GREEN? Route past the phasor;
#X text 416 409 YELLOW Toggle reverb bypass;
#X text 9 373 LEFT OF GREEN Multiply output for volume control;
#X obj 76 526 outlet valuevolume;
#X obj 254 434 outlet bypassphasor;
#X obj 411 433 outlet bypass reverb;
#X connect 0 0 5 0;
#X connect 0 0 1 0;
#X connect 1 0 2 0;
#X connect 3 0 4 0;
#X connect 4 0 6 1;
#X connect 5 0 6 0;
#X connect 6 0 9 0;
#X connect 6 0 10 0;
#X connect 10 0 12 0;
#X connect 12 0 14 0;
#X connect 14 0 15 0;
#X connect 14 1 16 0;
#X connect 15 0 11 0;
#X connect 15 0 20 0;
#X connect 16 0 21 0;
#X connect 16 1 22 0;
#X restore 202 87 pd readtouchbar;
#X obj 240 272 print volume;
#X obj 151 288 reverb_twig;
#X obj 120 128 *~ 0.6;
#X obj 120 222 phaser_twig;
#X connect 0 0 8 0;
#X connect 2 0 5 0;
#X connect 2 0 7 1;
#X connect 2 0 9 1;
#X connect 3 0 6 0;
#X connect 3 0 8 1;
#X connect 5 0 3 0;
#X connect 5 2 7 3;
#X connect 7 0 1 0;
#X connect 7 0 1 1;
#X connect 8 0 7 0;
