#N canvas 1010 212 914 669 10;
#X obj 119 30 adc~;
#X obj 121 461 dac~;
#X obj 497 10 loadbang;
#X obj 165 91 vsl 16 136 0 1 0 0 empty empty VOLUME 0 -9 0 10 #ffffff #ffc7c6 #ff0400 0 1;
#X text 251 133 volume \, controlled by Trill sensor;
#N canvas 839 66 988 956 readtouchbar 1;
#X obj 197 16 inlet;
#X msg 308 37 new touchbar 1 BAR;
#X obj 308 79 s bela_setTrill;
#X obj 272 158 r bela_trill;
#X obj 272 204 route touchbar;
#X obj 197 251 list;
#X text 330 16 initialise sensor;
#X text 268 133 read sensor data stream;
#X obj 196 292 print touchbar;
#X obj 130 282 route 1;
#X obj 319 561 print afterroute;
#X msg 130 312 \$1;
#X text 12 240 if 1 touch \, use position to set detection level, f 24;
#X obj 305 526 * 15;
#X obj 295 590 outlet valuevolume;
#X obj 166 364 print onetouch;
#X obj 305 490 moses 0.7;
#X obj 130 456 moses 0.2;
#X obj 448 596 outlet freezereverb;
#X text 439 503 YELLOW Toggle freeze reverb;
#X text 302 471 from RED to GREEN volume control;
#X text 138 436 RED Mute audio output;
#X text 164 313 1st item (position);
#X obj 130 594 outlet muteaudio;
#X obj 130 558 bng 16 250 50 0 empty empty empty 0 -8 0 10 #fcfcfc #000000 #000000;
#X obj 197 57 metro 300;
#X text 39 56 was metro 200;
#X obj 130 522 delay 5000;
#X obj 448 567 bng 16 250 50 0 empty empty empty 0 -8 0 10 #fcfcfc #000000 #000000;
#X obj 448 531 delay 5000;
#X connect 0 0 1 0;
#X connect 0 0 25 0;
#X connect 1 0 2 0;
#X connect 3 0 4 0;
#X connect 4 0 5 1;
#X connect 5 0 8 0;
#X connect 5 0 9 0;
#X connect 9 0 11 0;
#X connect 11 0 15 0;
#X connect 11 0 17 0;
#X connect 13 0 10 0;
#X connect 13 0 14 0;
#X connect 16 0 13 0;
#X connect 16 1 29 0;
#X connect 17 0 27 0;
#X connect 17 1 16 0;
#X connect 24 0 23 0;
#X connect 25 0 5 0;
#X connect 27 0 24 0;
#X connect 28 0 18 0;
#X connect 29 0 28 0;
#X restore 245 55 pd readtouchbar;
#X obj 195 235 print volume;
#X obj 120 320 reverb_twig;
#X obj 120 247 *~ 0.6;
#X obj 512 58 phaser_twig;
#X obj 199 361 tgl 16 0 empty empty empty 0 -8 0 10 #fcfcfc #000000 #000000 0 1;
#X obj 121 392 *~;
#X obj 200 395 print mute;
#X msg 216 335 0;
#X connect 0 0 8 0;
#X connect 2 0 5 0;
#X connect 2 0 7 1;
#X connect 2 0 9 1;
#X connect 2 0 13 0;
#X connect 3 0 6 0;
#X connect 3 0 8 1;
#X connect 5 0 10 0;
#X connect 5 1 3 0;
#X connect 5 2 7 2;
#X connect 7 0 11 0;
#X connect 8 0 7 0;
#X connect 10 0 11 1;
#X connect 10 0 12 0;
#X connect 11 0 1 0;
#X connect 11 0 1 1;
#X connect 13 0 10 0;
