#N canvas 683 41 709 755 10;
#X obj 37 75 adc~;
#X obj 40 508 dac~;
#X obj 484 39 loadbang;
#N canvas 0 25 1440 771 readtouchbar 1;
#X obj 125 5 inlet;
#X msg 217 45 new touchbar 1 BAR;
#X obj 217 87 s bela_setTrill;
#X obj 271 144 r bela_trill;
#X obj 271 190 route touchbar;
#X obj 127 247 list;
#X text 340 44 initialise sensor;
#X text 353 143 read sensor data stream;
#X obj 129 328 unpack f f f;
#X obj 129 381 change;
#X obj 129 411 sel 1 0;
#X obj 274 528 moses 0.2;
#X obj 274 634 tgl 19 0 empty empty empty 0 -10 0 12 #fcfcfc #000000 #000000 0 1;
#X obj 275 735 outlet muteaudio;
#X obj 448 570 moses 0.7;
#X obj 449 737 outlet valuevolume;
#X obj 169 458 pack;
#X text 269 498 each new touch is tested for where it comes in;
#X obj 448 611 bng 16 250 50 0 empty empty empty 0 -8 0 10 #fcfcfc #000000 #000000;
#X obj 183 361 s pos-stream;
#X obj 449 644 v pos-stream;
#X obj 205 500 route 1;
#X msg 149 437 1;
#X obj 274 607 bng 16 250 50 0 empty empty empty 0 -8 0 10 #fcfcfc #000000 #000000;
#X obj 592 601 bng 16 250 50 0 empty empty empty 0 -8 0 10 #fcfcfc #000000 #000000;
#X text 169 247 list of sensor data: number of touches \, position \, size;
#X text -13 608 mute/unmute with every new touch in this zone;
#X obj 449 684 volscale;
#X obj 593 737 outlet resetAll;
#X obj 126 49 metro 300;
#X obj 659 704 s bela_digitalOut12;
#X obj 617 628 t b b;
#X msg 696 651 1;
#X msg 618 678 0;
#X obj 618 652 delay 1500;
#X text 738 650 flash LED to indicate reset;
#X text 194 382 detect a change in the number of reported touches to differentiate between a long touch and a sequence of individual touches.;
#X text 281 553 mute zone;
#X text 461 592 volume zone;
#X text 615 603 reset zone;
#X connect 0 0 1 0;
#X connect 0 0 29 0;
#X connect 1 0 2 0;
#X connect 3 0 4 0;
#X connect 4 0 5 1;
#X connect 5 0 8 0;
#X connect 8 0 9 0;
#X connect 8 1 16 1;
#X connect 8 1 19 0;
#X connect 9 0 10 0;
#X connect 10 0 22 0;
#X connect 11 0 23 0;
#X connect 11 1 14 0;
#X connect 12 0 13 0;
#X connect 14 0 18 0;
#X connect 14 1 24 0;
#X connect 16 0 21 0;
#X connect 18 0 20 0;
#X connect 20 0 27 0;
#X connect 21 0 11 0;
#X connect 22 0 16 0;
#X connect 23 0 12 0;
#X connect 24 0 28 0;
#X connect 24 0 31 0;
#X connect 27 0 15 0;
#X connect 29 0 5 0;
#X connect 31 0 34 0;
#X connect 31 1 32 0;
#X connect 32 0 30 0;
#X connect 33 0 30 0;
#X connect 34 0 33 0;
#X restore 120 77 pd readtouchbar;
#X obj 40 383 reverb_twig;
#X obj 120 411 tgl 16 0 empty empty empty 0 -8 0 10 #fcfcfc #000000 #000000 0 1;
#X obj 39 441 *~;
#X msg 206 383 0;
#X text 228 79 processes Trill bar output;
#X text 33 51 signal from Twigstrument (contact mic);
#X text 35 596 reverb on by default \, currently with hardcoded parameters;
#X obj 40 327 +~;
#X msg 140 249 1;
#X obj 40 292 *~ 1;
#X msg 157 353 1;
#X obj 484 133 s bela_setDigital;
#X msg 484 101 out 17;
#X obj 121 458 s bela_digitalOut17;
#X text 252 457 change LED state: off when muted \, on when audible;
#X msg 538 101 out 12;
#X text 531 70 initialise pins for LED control;
#X text 244 385 (un)mute from Trill touch control;
#X text 249 403 - muted on launch;
#X text 250 420 - unmuted on triggering the reset function from the touchbar;
#X connect 0 0 13 0;
#X connect 2 0 4 1;
#X connect 2 0 7 0;
#X connect 2 0 3 0;
#X connect 2 0 16 0;
#X connect 2 0 19 0;
#X connect 3 0 5 0;
#X connect 3 1 13 1;
#X connect 3 2 4 1;
#X connect 3 2 12 0;
#X connect 3 2 14 0;
#X connect 4 0 6 0;
#X connect 5 0 6 1;
#X connect 5 0 17 0;
#X connect 6 0 1 0;
#X connect 6 0 1 1;
#X connect 7 0 5 0;
#X connect 11 0 4 0;
#X connect 12 0 13 1;
#X connect 13 0 11 0;
#X connect 14 0 5 0;
#X connect 16 0 15 0;
#X connect 19 0 15 0;
