#N canvas 7 34 709 755 10;
#X obj 37 75 adc~;
#X obj 40 508 dac~;
#X obj 484 39 loadbang;
#N canvas 343 25 1440 771 readtouchbar 1;
#X obj 197 16 inlet;
#X msg 308 37 new touchbar 1 BAR;
#X obj 308 79 s bela_setTrill;
#X obj 272 158 r bela_trill;
#X obj 272 204 route touchbar;
#X obj 197 251 list;
#X text 330 16 initialise sensor;
#X text 268 133 read sensor data stream;
#X obj 130 342 unpack f f f;
#X obj 130 395 change;
#X obj 130 425 sel 1 0;
#X obj 275 542 moses 0.2;
#X obj 275 648 tgl 19 0 empty empty empty 0 -10 0 12 #fcfcfc #000000 #000000 0 1;
#X obj 275 735 outlet muteaudio;
#X obj 449 584 moses 0.7;
#X obj 449 737 outlet valuevolume;
#X obj 170 472 pack;
#X text 270 512 each new touch is tested for where it comes in;
#X obj 449 625 bng 16 250 50 0 empty empty empty 0 -8 0 10 #fcfcfc #000000 #000000;
#X obj 184 375 s pos-stream;
#X obj 450 658 v pos-stream;
#X obj 206 514 route 1;
#X msg 150 451 1;
#X obj 275 621 bng 16 250 50 0 empty empty empty 0 -8 0 10 #fcfcfc #000000 #000000;
#X obj 593 633 bng 16 250 50 0 empty empty empty 0 -8 0 10 #fcfcfc #000000 #000000;
#X text 240 251 list of sensor data: number of touches \, position \, size;
#X text 190 396 detect a change in the number of reported touches;
#X text -12 622 mute/unmute with every new touch in this zone;
#X obj 450 698 volscale;
#X obj 179 66 metro 500;
#X obj 217 438 route 0;
#X obj 217 473 print zero-reading;
#X text 616 635 reset state;
#X obj 593 737 outlet resetAll;
#X connect 0 0 1 0;
#X connect 0 0 29 0;
#X connect 1 0 2 0;
#X connect 3 0 4 0;
#X connect 4 0 5 1;
#X connect 5 0 8 0;
#X connect 8 0 9 0;
#X connect 8 0 30 0;
#X connect 8 1 16 1;
#X connect 8 1 19 0;
#X connect 9 0 10 0;
#X connect 10 0 22 0;
#X connect 11 0 23 0;
#X connect 11 1 14 0;
#X connect 12 0 13 0;
#X connect 14 0 18 0;
#X connect 14 1 24 0;
#X connect 16 0 21 0;
#X connect 18 0 20 0;
#X connect 20 0 28 0;
#X connect 21 0 11 0;
#X connect 22 0 16 0;
#X connect 23 0 12 0;
#X connect 24 0 33 0;
#X connect 28 0 15 0;
#X connect 29 0 5 0;
#X connect 30 0 31 0;
#X restore 120 77 pd readtouchbar;
#X obj 40 383 reverb_twig;
#X obj 120 411 tgl 16 0 empty empty empty 0 -8 0 10 #fcfcfc #000000 #000000 0 1;
#X obj 39 441 *~;
#X msg 206 383 0;
#X text 228 79 processes Trill bar output;
#X text 244 385 (un)mute from Trill touch control muted on launch;
#X text 33 51 signal from Twigstrument (contact mic);
#X text 277 566 reverb on by default \, currently with hardcoded parameters;
#X obj 40 327 +~;
#X obj 120 459 print mute-value;
#X obj 163 129 print vol-value;
#X msg 140 249 1;
#X obj 40 292 *~ 1;
#X msg 157 353 1;
#X connect 0 0 16 0;
#X connect 2 0 4 1;
#X connect 2 0 7 0;
#X connect 2 0 3 0;
#X connect 3 0 5 0;
#X connect 3 1 14 0;
#X connect 3 1 16 1;
#X connect 3 2 4 1;
#X connect 3 2 15 0;
#X connect 3 2 17 0;
#X connect 4 0 6 0;
#X connect 5 0 6 1;
#X connect 5 0 13 0;
#X connect 6 0 1 0;
#X connect 6 0 1 1;
#X connect 7 0 5 0;
#X connect 12 0 4 0;
#X connect 15 0 16 1;
#X connect 16 0 12 0;
#X connect 17 0 5 0;
