#N canvas 768 116 1075 690 10;
#X obj 400 411 phasor~;
#X obj 424 434 cos~;
#X obj 391 532 *~;
#X obj 425 532 *~;
#X obj 400 343 line~;
#X obj 372 250 t f b;
#X obj 485 412 line~;
#X msg 535 389 0 4;
#X obj 454 204 line;
#X obj 372 204 random 100;
#X msg 631 160 0;
#X obj 581 91 select 100;
#X obj 581 114 t b b;
#X obj 631 243 random 100;
#X obj 631 266 expr $f1+100;
#X obj 242 155 vsl 15 128 0 1 0 0 empty empty empty 0 -9 0 10 #9c00ff #000000 #000000 0 1;
#X obj 688 220 expr 400-($f1*300);
#X obj 638 114 * 10;
#X obj 581 137 pack 100 f;
#X msg 581 160 100 \$1;
#X obj 171 156 vsl 15 128 0.3 1.5 0 0 empty empty empty 0 -9 0 10 #ff0400 #000000 #000000 0 1;
#X obj 479 -28 loadbang;
#X obj 372 227 expr $f1*$f3*8+$f2*$f3*10+50;
#X obj 108 156 vsl 15 128 30 100 0 0 empty empty empty 0 -9 0 10 #ff8300 #000000 #000000 0 1;
#X obj 341 320 pack f f;
#X obj 580 312 t b b b b b;
#X obj 391 555 +~;
#X obj 425 555 +~;
#X obj 643 458 line~;
#X msg 643 435 \$1 10;
#X obj 749 458 line~;
#X msg 749 435 \$1 10;
#X obj 749 389 random 100;
#X obj 643 389 random 100;
#X obj 643 412 expr $f1/100-0.5;
#X obj 749 412 expr $f1/100-0.5;
#X msg 485 389 0.5 90;
#X msg 171 130 1;
#X msg 108 130 70;
#X msg 399 320 20;
#X text 792 433 add random offset;
#X text 793 447 to make the bubbles;
#X text 794 460 jump;
#X text 523 422 90ms attack;
#X text 523 434 4ms release;
#X text 523 409 bubble envelope;
#X obj 545 366 delay;
#X msg 242 129 0.7;
#X obj 580 289 metro 100;
#X text 333 438 waveform;
#X text 343 425 circular;
#X text 641 283 trigger at;
#X text 641 295 random intervals;
#X text 719 102 Jerobeam Fenderson / 2014;
#X text 719 116 jerobeamfenderson.net;
#X text 359 171 pitch:;
#X text 358 185 rising + random;
#X text 720 147 as used in "Khrậng" (video):;
#X text 721 160 http://www.youtube.com/watch?v=vAyCl4IHIz8;
#X text 719 88 bubbles for oscilloscopes;
#X obj 398 597 outlet~;
#X text 106 106 bubbles by Jerobeam Fenderson;
#X floatatom 48 35 5 0 127 0 - - - 0;
#X obj 48 7 ctlin 77;
#X floatatom 106 34 5 0 0 0 - - - 0;
#X floatatom 165 34 5 0 0 0 - - - 0;
#X obj 106 7 ctlin 93;
#X obj 165 7 ctlin 73;
#X text 126 148 5 size;
#X text 190 147 6 pitch;
#X text 260 147 7 density;
#X obj 141 70 / 82;
#X obj 187 69 / 128;
#X obj 53 73 / 1.2;
#X obj 247 490 osc~;
#X connect 0 0 1 0;
#X connect 0 0 74 0;
#X connect 1 0 3 0;
#X connect 2 0 26 0;
#X connect 3 0 27 0;
#X connect 4 0 0 0;
#X connect 5 0 24 0;
#X connect 5 1 39 0;
#X connect 6 0 3 1;
#X connect 6 0 2 1;
#X connect 7 0 6 0;
#X connect 8 0 11 0;
#X connect 8 0 22 1;
#X connect 9 0 22 0;
#X connect 10 0 8 0;
#X connect 11 0 12 0;
#X connect 12 0 18 0;
#X connect 12 1 10 0;
#X connect 13 0 14 0;
#X connect 14 0 48 1;
#X connect 15 0 16 0;
#X connect 16 0 13 1;
#X connect 16 0 17 0;
#X connect 17 0 18 1;
#X connect 18 0 19 0;
#X connect 19 0 8 0;
#X connect 20 0 22 2;
#X connect 21 0 37 0;
#X connect 21 0 47 0;
#X connect 21 0 38 0;
#X connect 21 0 48 0;
#X connect 22 0 5 0;
#X connect 23 0 24 1;
#X connect 23 0 46 1;
#X connect 24 0 4 0;
#X connect 25 0 13 0;
#X connect 25 1 9 0;
#X connect 25 2 46 0;
#X connect 25 3 36 0;
#X connect 25 4 32 0;
#X connect 25 4 33 0;
#X connect 26 0 60 0;
#X connect 27 0 60 0;
#X connect 28 0 26 1;
#X connect 29 0 28 0;
#X connect 30 0 27 1;
#X connect 31 0 30 0;
#X connect 32 0 35 0;
#X connect 33 0 34 0;
#X connect 34 0 29 0;
#X connect 35 0 31 0;
#X connect 36 0 6 0;
#X connect 37 0 20 0;
#X connect 38 0 23 0;
#X connect 39 0 4 0;
#X connect 46 0 7 0;
#X connect 47 0 15 0;
#X connect 48 0 25 0;
#X connect 62 0 73 0;
#X connect 63 0 62 0;
#X connect 64 0 71 0;
#X connect 65 0 72 0;
#X connect 66 0 64 0;
#X connect 67 0 65 0;
#X connect 71 0 20 0;
#X connect 72 0 15 0;
#X connect 73 0 23 0;
#X connect 74 0 2 0;
#X coords 0 -1 1 1 220 200 2 100 100;
