#N canvas 200 200 450 300 10;
#X obj 50 50 inlet~;
#X obj 50 250 outlet~;
#X obj 150 50 inlet;
#X obj 50 150 *~;
#X obj 150 100 sig~;
#X obj 250 250 outlet~;
#X obj 150 150 expr~ 1-$v1;
#X obj 250 200 *~;
#X connect 0 0 3 0;
#X connect 0 0 7 0;
#X connect 2 0 4 0;
#X connect 3 0 1 0;
#X connect 4 0 3 1;
#X connect 4 0 6 0;
#X connect 6 0 7 1;
#X connect 7 0 5 0;
#X text 171 161 patch created by claude.ai 2024-09-02 to replicate the functionality of spigot~ found in the unauthorized library without the need to install a library;
