#N canvas 551 64 728 563 10;
#X obj 37 75 adc~;
#X obj 40 508 dac~;
#X obj 484 39 loadbang;
#X obj 164 120 vsl 16 136 0 1 0 0 empty empty VOLUME 0 -9 0 10 #ffffff #ffc7c6 #ff0400 0 1;
#X text 186 135 volume \, controlled by Trill sensor;
#N canvas 946 64 755 832 readtouchbar 0;
#X obj 197 16 inlet;
#X msg 308 37 new touchbar 1 BAR;
#X obj 308 79 s bela_setTrill;
#X obj 272 158 r bela_trill;
#X obj 272 204 route touchbar;
#X obj 197 251 list;
#X text 330 16 initialise sensor;
#X text 268 133 read sensor data stream;
#X obj 179 66 metro 300;
#X obj 130 342 unpack f f f;
#X obj 130 395 change;
#X obj 130 425 sel 1 0;
#X obj 275 542 moses 0.2;
#X obj 275 648 tgl 19 0 empty empty empty 0 -10 0 12 #fcfcfc #000000 #000000 0 1;
#X obj 275 735 outlet muteaudio;
#X obj 449 584 moses 0.7;
#X obj 449 693 * 15;
#X obj 449 737 outlet valuevolume;
#X obj 593 737 outlet start_phasor;
#X obj 170 472 pack;
#X text 270 512 each new touch is tested for where it comes in;
#X obj 449 625 bng 16 250 50 0 empty empty empty 0 -8 0 10 #fcfcfc #000000 #000000;
#X obj 184 375 s pos-stream;
#X obj 450 658 v pos-stream;
#X obj 206 514 route 1;
#X msg 150 451 1;
#X obj 275 621 bng 16 250 50 0 empty empty empty 0 -8 0 10 #fcfcfc #000000 #000000;
#X obj 593 660 tgl 19 0 empty empty empty 0 -10 0 12 #fcfcfc #000000 #000000 0 1;
#X obj 593 633 bng 16 250 50 0 empty empty empty 0 -8 0 10 #fcfcfc #000000 #000000;
#X text 240 251 list of sensor data: number of touches \, position \, size;
#X text 10 395 detect a change in the number of reported touches;
#X text 164 625 mute/unmute with every new touch in this zone;
#X text 339 659 receive position data & multiply to produce volume;
#X text 616 635 mute/unmute phasor effect with every new touch in this zone;
#X obj 449 715 print volume-level;
#X obj 277 680 print mute-state;
#X obj 594 690 print phaser-state;
#X connect 0 0 1 0;
#X connect 0 0 8 0;
#X connect 1 0 2 0;
#X connect 3 0 4 0;
#X connect 4 0 5 1;
#X connect 5 0 9 0;
#X connect 8 0 5 0;
#X connect 9 0 10 0;
#X connect 9 1 19 1;
#X connect 9 1 22 0;
#X connect 10 0 11 0;
#X connect 11 0 25 0;
#X connect 12 0 26 0;
#X connect 12 1 15 0;
#X connect 13 0 14 0;
#X connect 13 0 35 0;
#X connect 15 0 21 0;
#X connect 15 1 28 0;
#X connect 16 0 17 0;
#X connect 16 0 34 0;
#X connect 19 0 24 0;
#X connect 21 0 23 0;
#X connect 23 0 16 0;
#X connect 24 0 12 0;
#X connect 25 0 19 0;
#X connect 26 0 13 0;
#X connect 27 0 18 0;
#X connect 27 0 36 0;
#X connect 28 0 27 0;
#X restore 120 77 pd readtouchbar;
#X obj 40 383 reverb_twig;
#X obj 40 292 *~ 0.6;
#X obj 328 269 phaser_twig;
#X obj 120 411 tgl 16 0 empty empty empty 0 -8 0 10 #fcfcfc #000000 #000000 0 1;
#X obj 39 441 *~;
#X msg 206 383 0;
#X text 228 79 processes Trill bar output;
#X text 244 385 (un)mute from Trill touch control muted on launch;
#X text 33 51 signal from Twigstrument (contact mic);
#X text 415 267 phaser module \, Trill touch control to start/mute;
#X text 259 336 reverb on by default \, currently with hardcoded parameters;
#X obj 40 327 +~;
#X obj 192 178 print slider-value;
#X obj 41 260 print input-signal;
#X obj 38 539 print final-output;
#X obj 329 308 print phaser-output;
#X connect 0 0 7 0;
#X connect 0 0 8 0;
#X connect 0 0 19 0;
#X connect 2 0 6 1;
#X connect 2 0 8 2;
#X connect 2 0 11 0;
#X connect 2 0 5 0;
#X connect 3 0 7 1;
#X connect 3 0 18 0;
#X connect 5 0 9 0;
#X connect 5 1 3 0;
#X connect 5 2 8 1;
#X connect 6 0 10 0;
#X connect 7 0 17 0;
#X connect 8 0 17 1;
#X connect 8 0 21 0;
#X connect 9 0 10 1;
#X connect 10 0 1 0;
#X connect 10 0 1 1;
#X connect 10 0 20 0;
#X connect 11 0 9 0;
#X connect 17 0 6 0;