#N canvas 37 30 861 762 10;
#X obj 495 150 hsl 128 15 0 10 0 0 empty empty empty -2 -8 0 10 #fcfcfc #000000 #000000 0 1;
#X obj 333 257 *~ 2;
#X obj 333 277 +~ 2;
#X obj 372 299 *~ 2;
#X obj 371 322 +~ 2;
#X obj 75 234 delwrite~ phase2 100;
#X obj 371 348 vd~ phase2;
#X obj 372 255 wrap~;
#X obj 342 200 phasor~;
#X obj 371 234 +~ 0.5;
#X obj 333 234 cos~;
#X obj 372 275 cos~;
#X obj 498 247 hsl 128 15 0 3 0 0 empty empty empty -2 -8 0 10 #fcfcfc #000000 #000000 0 1;
#X obj 371 371 *~ 0.8;
#X obj 333 432 *~ 0.8;
#X obj 75 444 s~ output;
#X obj 75 477 r~ output;
#X obj 527 366 hsl 128 15 -0.9 0.9 0 0 empty empty empty -2 -8 0 10 #fcfcfc #000000 #000000 0 1;
#X text 247 165 <-- Write to delay lines;
#X text 443 345 <-- Read from delay line 2;
#X text 437 409 <-- Read from delay line 1;
#X obj 334 409 vd~ phase1;
#X obj 191 201 delwrite~ phase1 100;
#X text 405 200 <-- Low Frequency Oscillator (LFO);
#X floatatom 492 178 5 0 0 0 - - - 0;
#X floatatom 496 273 5 0 0 0 - - - 0;
#X floatatom 524 387 5 0 0 0 - - - 0;
#X text 635 146 <-- Speed (try 0.7);
#X text 640 245 <-- Depth (try 2.4);
#X text 667 366 <-- Feedback (try -0.3);
#X text 31 650 Based on a patch by Pierre Massat \, GuitarExtended \, 2012;
#X obj 75 64 inlet~ signalphasor;
#X obj 75 578 outlet~ phasedsignalmono;
#X obj 443 66 inlet initalisephasor;
#X obj 242 67 inlet togglephasor;
#X obj 175 107 tgl 16 0 empty empty empty 0 -8 0 10 #fcfcfc #000000 #000000 0 1;
#X obj 76 128 *~;
#X msg 492 120 0.7;
#X obj 175 137 print ptoggleon;
#X obj 553 98 print phaserinit;
#X msg 493 218 5;
#X msg 523 327 0.5;
#X obj 74 516 *~ 0.6;
#X connect 0 0 8 0;
#X connect 0 0 24 0;
#X connect 1 0 2 0;
#X connect 2 0 21 0;
#X connect 3 0 4 0;
#X connect 4 0 6 0;
#X connect 6 0 13 0;
#X connect 6 0 15 0;
#X connect 7 0 11 0;
#X connect 8 0 9 0;
#X connect 8 0 10 0;
#X connect 9 0 7 0;
#X connect 10 0 1 0;
#X connect 11 0 3 0;
#X connect 12 0 1 1;
#X connect 12 0 3 1;
#X connect 12 0 2 1;
#X connect 12 0 4 1;
#X connect 12 0 25 0;
#X connect 13 0 5 0;
#X connect 14 0 22 0;
#X connect 16 0 42 0;
#X connect 17 0 14 1;
#X connect 17 0 13 1;
#X connect 17 0 26 0;
#X connect 21 0 14 0;
#X connect 21 0 15 0;
#X connect 31 0 36 0;
#X connect 33 0 37 0;
#X connect 33 0 40 0;
#X connect 33 0 41 0;
#X connect 33 0 39 0;
#X connect 34 0 35 0;
#X connect 35 0 36 1;
#X connect 35 0 38 0;
#X connect 36 0 5 0;
#X connect 36 0 22 0;
#X connect 37 0 0 0;
#X connect 40 0 12 0;
#X connect 41 0 17 0;
#X connect 42 0 32 0;
