#N canvas 92 114 914 669 10;
#X obj 178 349 freeverb~;
#X msg 140 99 roomsize 0.5;
#X msg 230 98 damping 0.2;
#X msg 312 99 wet 0.75;
#X msg 379 98 dry 0.25;
#X obj 9 7 inlet~ reverbsignal;
#X obj 139 7 inlet initialise;
#X obj 177 616 outlet~ reverbaddedsignal;
#X text 415 638 Based on a patch by Pierre Massat \, GuitarExtended \, 2012;
#X connect 0 0 7 0;
#X connect 1 0 0 0;
#X connect 2 0 0 0;
#X connect 3 0 0 0;
#X connect 4 0 0 0;
#X connect 5 0 0 0;
#X connect 6 0 1 0;
#X connect 6 0 2 0;
#X connect 6 0 3 0;
#X connect 6 0 4 0;
