#N canvas 92 114 914 669 10;
#X msg 365 275 freeze \$1;
#X msg 521 274 bypass \$1;
#X obj 365 258 tgl 15 0 empty empty empty 17 7 0 10 #fcfcfc #000000 #000000 0 1;
#X obj 521 257 tgl 15 0 empty empty empty 17 7 0 10 #fcfcfc #000000 #000000 0 1;
#X obj 662 578 hsl 128 15 0 1 0 0 empty empty empty -2 -8 0 10 #00f8fc #000000 #000000 0 1;
#X floatatom 659 597 5 0 0 0 - - - 0;
#X obj 270 187 expr 1-$f1;
#X obj 660 463 hsl 128 15 0 1 0 0 empty empty empty -2 -8 0 10 #00fc04 #000000 #000000 0 1;
#X obj 662 520 hsl 128 15 0 1 0 0 empty empty empty -2 -8 0 10 #fc8000 #000000 #000000 0 1;
#X floatatom 659 540 5 0 0 0 - - - 0;
#X floatatom 657 488 5 0 0 0 - - - 0;
#X text 376 229 Freeze the reverb;
#X text 612 283 the dry signal pass through.;
#X text 611 270 Trun the reverb off and let;
#X text 709 605 Wet signal to dry signal ratio;
#X text 709 621 (0 : all dry \, 1 : all wet);
#X text 710 540 Damping level;
#X obj 178 349 freeverb~;
#X msg 215 52 roomsize 0.5;
#X msg 214 113 damping 0.2;
#X msg 210 183 wet 0.75;
#X msg 209 204 dry 0.25;
#X obj 9 7 inlet~ reverbsignal;
#X obj 139 7 inlet initialise;
#X obj 177 616 outlet~ reverbaddedsignal;
#X text 656 434 NOT CURRENTLY IN USE;
#X text 709 486 Roomsize;
#X obj 365 8 inlet freezereverb;
#X obj 487 8 inlet bypassreverb;
#X text 413 620 Based on a patch by Pierre Massat \, GuitarExtended \, 2012;
#X connect 0 0 17 0;
#X connect 1 0 17 0;
#X connect 2 0 0 0;
#X connect 3 0 1 0;
#X connect 4 0 5 0;
#X connect 6 0 21 0;
#X connect 7 0 10 0;
#X connect 8 0 9 0;
#X connect 17 0 24 0;
#X connect 18 0 17 0;
#X connect 19 0 17 0;
#X connect 20 0 17 0;
#X connect 21 0 17 0;
#X connect 22 0 17 0;
#X connect 23 0 18 0;
#X connect 23 0 19 0;
#X connect 23 0 20 0;
#X connect 23 0 21 0;
#X connect 27 0 2 0;
#X connect 28 0 3 0;
