#N canvas 4 64 1920 966 12;
#X declare -path unauthorized;
#X obj 403 307 noise~;
#X obj 662 701 *~;
#X floatatom 1401 642 9 0 1 2 - - - 0;
#X obj 428 775 dac~;
#X obj 1401 529 vsl 25 100 0 1 0 0 empty empty 1.Vol 0 -9 0 10 #ffe3c6 #000000 #000000 0 1;
#X obj 679 442 bp~ 1000 5;
#X obj 448 167 hradio 30 1 0 2 empty empty empty 0 -8 0 10 #c7c6ff #000000 #000000 0;
#X floatatom 448 271 5 0 0 0 - - - 0;
#X obj 402 368 spigot~;
#X obj 1401 417 ctlin 10;
#X obj 1401 444 / 127;
#X floatatom 842 327 9 0 1 2 - - - 0;
#X obj 842 205 vsl 15 100 200 1270 0 0 empty empty 2.Freq 0 -9 0 10 #c6feff #000000 #000000 0 1;
#X obj 793 133 ctlin 74;
#X obj 793 160 * 10;
#X floatatom 922 327 9 0 1 2 - - - 0;
#X obj 922 205 vsl 15 100 0 12 0 0 empty empty 3.Q 0 -9 0 10 #c6ffc7 #000000 #000000 0 1;
#X obj 873 133 ctlin 71;
#X obj 1270 116 declare -path unauthorized;
#X obj 557 371 phasor~;
#X obj 662 545 *~;
#X floatatom 557 329 5 0 0 0 - - - 0;
#X obj 557 206 vsl 15 100 200 1270 0 0 empty empty 4.Freq 0 -9 0 10 #c6feff #000000 #000000 0 1;
#X obj 546 134 ctlin 76;
#X msg 689 287 0.5;
#X msg 721 266 0.9;
#X obj 556 463 expr~ $v1 > $f2;
#X msg 658 262 0;
#X obj 546 161 * 20;
#X msg 1322 499 0;
#X obj 1322 415 notein;
#X floatatom 1276 444 5 0 0 0 - - - 0;
#X obj 658 183 notein;
#X floatatom 614 218 5 0 0 0 - - - 0;
#X obj 1322 445 route 36;
#X obj 1322 473 bng 15 250 50 0 empty empty empty 17 7 0 10 #fcfcfc #000000 #000000;
#X obj 881 380 bubbles;
#X obj 661 665 *~;
#X obj 708 612 *~;
#X floatatom 701 644 5 0 0 0 - - - 0;
#X obj 707 547 tgl 15 0 empty empty empty 17 7 0 10 #fcfcfc #000000 #000000 0 1;
#X obj 661 576 spigot~;
#X obj 445 107 route 51 43;
#X msg 444 134 0;
#X msg 485 134 1;
#X obj 658 219 route 44 45 46 37;
#X text 1320 388 9.mute;
#X obj 873 160 / 20;
#X text 633 263 1;
#X text 751 266 3;
#X text 726 290 2;
#X text 744 647 if this is zero \, nothing works!;
#X floatatom 538 532 5 0 0 0 - - - 0;
#X obj 462 599 hip~ 1000;
#X obj 145 77 adc~;
#X obj 392 689 *~ 5;
#X connect 0 0 8 0;
#X connect 1 0 3 0;
#X connect 1 0 3 1;
#X connect 2 0 1 1;
#X connect 4 0 2 0;
#X connect 5 0 20 1;
#X connect 6 0 7 0;
#X connect 7 0 8 1;
#X connect 8 0 53 0;
#X connect 8 1 5 0;
#X connect 9 0 10 0;
#X connect 10 0 4 0;
#X connect 11 0 5 1;
#X connect 12 0 11 0;
#X connect 13 0 14 0;
#X connect 14 0 12 0;
#X connect 15 0 5 2;
#X connect 16 0 15 0;
#X connect 17 0 47 0;
#X connect 19 0 26 0;
#X connect 20 0 41 0;
#X connect 21 0 19 0;
#X connect 22 0 21 0;
#X connect 23 0 28 0;
#X connect 24 0 26 1;
#X connect 25 0 26 1;
#X connect 26 0 20 0;
#X connect 27 0 26 1;
#X connect 28 0 22 0;
#X connect 29 0 2 0;
#X connect 29 0 4 0;
#X connect 30 0 31 0;
#X connect 30 0 34 0;
#X connect 32 0 33 0;
#X connect 32 0 42 0;
#X connect 32 0 45 0;
#X connect 34 0 35 0;
#X connect 35 0 29 0;
#X connect 36 0 38 1;
#X connect 37 0 1 0;
#X connect 38 0 37 0;
#X connect 39 0 37 1;
#X connect 40 0 41 1;
#X connect 41 0 37 0;
#X connect 41 1 38 0;
#X connect 42 0 43 0;
#X connect 42 1 44 0;
#X connect 43 0 6 0;
#X connect 44 0 6 0;
#X connect 45 0 27 0;
#X connect 45 1 24 0;
#X connect 45 2 25 0;
#X connect 45 3 40 0;
#X connect 47 0 16 0;
#X connect 52 0 53 1;
#X connect 53 0 38 0;
#X connect 54 0 55 0;
#X connect 55 0 3 0;
#X connect 55 0 3 1;
