#N canvas 100 100 650 400 10;
#X obj 105 39 inlet;
#X obj 106 310 outlet;
#X text 149 39 Input from touchbar position (0.2-0.7 range);
#X text 23 10 Volume scaler - Handles values coming from the volume section;
#X obj 105 90 - 0.2;
#X text 231 90 Shift range to start at 0 (becomes 0-0.5);
#X obj 105 154 clip 0 1;
#X text 231 154 Ensure intermediate values stay in range;
#X text 231 186 Apply curve for more natural volume control;
#X obj 132 261 print scaled-volume;
#X obj 105 122 * 2;
#X text 231 122 Multiply by 2 to get 0-1 range (since 0.5 * 2 = 1);
#X text 35 358 Abstraction created in collaboration with Claude AI 2025-03-03.;
#X obj 105 218 * 5;
#X text 231 218 Scale final output to 0-5 range;
#X text 149 310 Scaled output (0-5);
#X connect 0 0 4 0;
#X connect 4 0 10 0;
#X connect 6 0 13 0;
#X connect 10 0 6 0;
#X connect 13 0 1 0;
#X connect 13 0 9 0;
