#N canvas 100 100 650 400 10;
#X obj 105 39 inlet;
#X obj 105 248 outlet;
#X text 149 39 Input from touchbar position (0.2-0.7 range);
#X text 148 248 Scaled output (0-1);
#X text 23 10 Volume scaler - Handles values coming from the volume section;
#X obj 105 90 - 0.2;
#X text 231 90 Shift range to start at 0 (becomes 0-0.5);
#X obj 105 154 clip 0 1;
#X text 231 154 Ensure values stay in range;
#X obj 105 186 pow 2;
#X text 231 186 Optional: Apply curve for more natural volume control;
#X obj 223 224 print scaled-volume;
#X obj 105 122 * 2;
#X text 231 122 Multiply by 2 to get 0-1 range (since 0.5 * 2 = 1);
#X connect 0 0 5 0;
#X connect 5 0 12 0;
#X connect 7 0 9 0;
#X connect 9 0 1 0;
#X connect 9 0 11 0;
#X connect 12 0 7 0;