#N canvas 100 100 620 400 10;
#X obj 105 39 inlet;
#X obj 105 288 outlet;
#X text 149 39 Input from touchbar position;
#X text 148 288 Scaled output (0-1);
#X text 23 10 Volume scaler - scales touchbar position to 0-1 volume range;
#X obj 105 90 clip 0.7 1;
#X obj 105 122 - 0.7;
#X obj 105 154 / 0.3;
#X text 237 90 Limit to the volume control section (0.7-1.0);
#X text 238 122 Shift range to start at 0 (becomes 0-0.3);
#X text 238 154 Scale to 0-1 range;
#X obj 105 186 clip 0 1;
#X text 237 186 Ensure we stay in range;
#X obj 105 218 pow 1.5;
#X text 236 218 Optional: Apply curve for more intuitive volume control;
#X obj 250 250 print scaled-volume;
#X connect 0 0 5 0;
#X connect 5 0 6 0;
#X connect 6 0 7 0;
#X connect 7 0 11 0;
#X connect 11 0 13 0;
#X connect 13 0 1 0;
#X connect 13 0 15 0;