#N canvas 100 100 650 400 10;
#X obj 105 39 inlet;
#X obj 105 288 outlet;
#X text 149 39 Input from touchbar position;
#X text 148 288 Scaled output (0-1);
#X text 23 10 Volume scaler for middle section of touchbar (0.2-0.7);
#X obj 105 90 clip 0.2 0.7;
#X obj 105 122 - 0.2;
#X obj 105 154 / 0.5;
#X text 231 90 Limit to the volume control section (0.2-0.7);
#X text 231 122 Shift range to start at 0 (becomes 0-0.5);
#X text 231 154 Scale to 0-1 range;
#X obj 105 186 clip 0 1;
#X text 231 186 Ensure we stay in range;
#X obj 105 218 pow 2;
#X text 231 218 Apply curve for more intuitive volume control;
#X obj 223 256 print scaled-volume;
#X connect 0 0 5 0;
#X connect 5 0 6 0;
#X connect 6 0 7 0;
#X connect 7 0 11 0;
#X connect 11 0 13 0;
#X connect 13 0 1 0;
#X connect 13 0 15 0;