#N canvas 662 211 650 400 10;
#X obj 105 288 outlet;
#X text 149 39 Input from touchbar position (0.2-0.7 range);
#X text 148 288 Scaled output (0-1);
#X text 23 10 Volume scaler - Handles values coming from the volume section;
#X obj 105 90 - 0.2;
#X obj 105 122 / 0.5;
#X obj 105 154 clip 0 1;
#X text 231 90 Shift range to start at 0 (becomes 0-0.5);
#X text 231 122 Scale to 0-1 range;
#X text 231 154 Ensure values stay in range;
#X obj 105 186 pow 2;
#X text 231 186 Optional: Apply curve for more natural volume control;
#X obj 223 224 print scaled-volume;
#X obj 62 41 vsl 16 136 0 0.5 0 0 empty empty empty 0 -9 0 10 #fcfcfc #000000 #000000 0 1;
#X connect 4 0 5 0;
#X connect 5 0 6 0;
#X connect 6 0 10 0;
#X connect 10 0 0 0;
#X connect 10 0 12 0;
#X connect 13 0 4 0;
